# xmcd CD database file
#
# Track frame offsets:
#	150
#	18172
#	33908
#	56636
#
# Disc length: 992 seconds
#
# Revision: 0
# Processed by: cddbd v1.5.1PL2 Copyright (c) Steve Scherf et al.
# Submitted via: CDex 1.51
#
DISCID=2603de04
DTITLE=ハレンチ☆パンチ - メガホン
DYEAR=2005
DGENRE=JPop
TTITLE0=メガホン
TTITLE1=恋は課外授業
TTITLE2=白線〜スタートライン [Winter's Story ver.]
TTITLE3=メガホン [Instrumental]
EXTD=YEAR: 2005
EXTT0=
EXTT1=
EXTT2=
EXTT3=
PLAYORDER=
